<svg xmlns="http://www.w3.org/2000/svg" xmlns:xlink="http://www.w3.org/1999/xlink" version="1.1" id="layer" x="0px" y="0px" style="enable-background:new 0 0 652 652;" xml:space="preserve" viewBox="20.66 224.72 599.92 194.39">
<style type="text/css">
	.st0{filter:url(#Adobe_OpacityMaskFilter);}
	.st1{fill:#FFFFFF;}
	.st2{mask:url(#mask-2_1_);fill:#CE0924;}
	.st3{fill:#CE0924;}
</style>
<g id="_x31__x5F_00_x5F_Homepage">
	<g id="_x31__x5F_Homepage---1800" transform="translate(-277.000000, -18.000000)">
		<g id="logo" transform="translate(277.000000, 18.000000)">
			<g id="Group-3" transform="translate(35.878597, 21.608454)">
				<g id="Clip-2">
				</g>
				<defs>
					<filter id="Adobe_OpacityMaskFilter" filterUnits="userSpaceOnUse" x="128.3" y="290" width="456.5" height="86.3">
						<feColorMatrix type="matrix" values="1 0 0 0 0  0 1 0 0 0  0 0 1 0 0  0 0 0 1 0"/>
					</filter>
				</defs>
				<mask maskUnits="userSpaceOnUse" x="128.3" y="290" width="456.5" height="86.3" id="mask-2_1_">
					<g class="st0">
						<polygon id="path-1_1_" class="st1" points="584.7,376.3 584.7,290 128.3,290 128.3,376.3       "/>
					</g>
				</mask>
				<path id="Fill-1" class="st2" d="M477.2,354.4c-0.1-0.5-0.1-1-0.1-1.5v-0.1c0-0.1,0-0.1,0-0.2c0-2.8,1.1-6.8,1.5-7.8l0.1-0.2      c1.1-3,1.5-4.2,3-6.4c2.5-3.6,3.6-4.8,6.2-6.5c2.4-1.6,5.5-1.9,5.8-1.9l0.1,0c0.4-0.1,1.1-0.1,1.9-0.1c0.9,0,1.8,0.1,2.2,0.1      l0.1,0c0.3,0,2.8,0.3,5,2.4c2.4,2.3,3.7,5.4,4,9.2c0.1,1.9,0,3.6-0.5,6.2c-0.8,4.7-2.6,7.9-3.8,9.8c-2,2.9-3.7,4.9-6.3,6.4      c-1.3,0.7-3.8,2.1-7.8,2.1c-1,0-2.1-0.1-3.2-0.3c-1.3-0.2-3.1-1.3-3.2-1.4c-0.1-0.1-0.8-0.6-1-0.9      C478.8,361.3,477.6,358.4,477.2,354.4L477.2,354.4z M520.9,327.8c-7.1-7-17.6-8-23.3-8c-3,0-5,0.3-5.2,0.3      c-13.7,2-23.8,7.2-30,15.3c-6.3,8.3-6.1,16.5-5.9,18.8c1,11.6,7.9,18.5,20.4,20.5l0,0c0.2,0,3.9,0.7,9.3,0.7      c6.4,0,12.3-0.9,17.4-2.8c5.4-1.9,9-4.8,9.2-4.9l0,0c6.9-5,9.9-10.6,10-10.9C527.1,348.7,530.3,337,520.9,327.8L520.9,327.8z       M533.8,322.7c-0.3,0.2-1,0.4-1.6,0.5c-0.2,0-0.5,0.1-0.7,0.1c-0.7,0-1.2-0.1-1.5-0.5c-1-0.9-0.7-2.1-0.3-2.7      c3.5-5.2,2.7-13.1,1.7-16.9l0-0.1l0,0l0-0.4c-0.2-0.9-0.3-1.8-0.3-2.7c0-4.1,2.5-5.7,2.8-5.9c0.1-0.1,0.3-0.2,0.7-0.4l0,0      l0.2-0.1c0.1,0,0.5-0.2,0.9-0.3c0.2-0.1,0.4-0.1,0.5-0.1c0.1,0,0.2-0.1,0.3-0.1c0,0,0.1,0,0.3,0c1.2-0.2,3.1-0.3,5.1,0.5      c0.1,0.1,0.3,0.1,0.4,0.2c1,0.5,1.9,1.2,2.6,2.1c0.7,0.9,1.2,2,1.5,3.2c0.4,1.6,0.5,3.6,0.2,5.8c0,0-0.3,2.7-1,4.5l-0.6,1.8      c-0.5,1.4-0.9,2.1-1.6,3.3c-0.1,0.1-0.2,0.3-0.4,0.7c-0.1,0.2-0.2,0.3-0.3,0.5c-0.6,0.9-0.9,1.3-1.7,2.2      c-0.2,0.2-0.4,0.4-0.7,0.7l-0.3,0.3c-0.5,0.5-1.1,1-1.9,1.6C536.1,321.7,534.7,322.4,533.8,322.7L533.8,322.7z M584.7,357.2      c0.1,3.8-2,8-5.6,11.3c-3.3,2.9-7.9,5.2-13.2,6.3c-1.3,0.3-5.8,1.2-11.5,1.2c-4.3,0-8.1-0.5-11.5-1.5l0,0l-1-0.3      c-3-1-5.5-2.3-7.2-3.9c-0.4-0.3-0.7-0.7-1-0.9c0,0-0.1-0.1-0.1-0.1c-2.4-2.9-2.8-6.3-1-9.6c1.1-2,2.8-3.5,4.6-4.3      c3.3-1.3,6.4-1.4,7.4-1.4l0.2,0c0.1,0,0.3,0,0.4,0c1.3,0,3.9,0.4,4.9,1.7c0.4,0.5,0.5,1.1,0.4,1.8c-0.1,0.4-0.4,0.9-1.2,1.4      c-2.4,1.2-4,2.3-4.4,3.5c-0.1,0.6,0,1.2,0.4,1.9c0.8,1.4,3.7,2.2,7.8,2.3h0.2c4.2,0,7.6-1.1,9.3-3.1c0.8-0.9,1.1-1.9,1-2.9      c0-0.3-0.1-0.7-0.3-1.1c-1.9-3.7-7.1-8.5-16.3-15c-0.3-0.2-0.6-0.4-0.9-0.7c-5.7-4.1-5.6-7.5-5.5-8.6l0-0.1c0-0.1,0-0.1,0-0.2      c0-1.4,0.4-2.4,0.4-2.4l0.1-0.1c2.3-7.5,10.9-9.8,15.9-10.4c1.8-0.2,3.3-0.3,4-0.3l0.3,0c0.8,0,1.6,0,2.5,0      c4.1,0,7.2,0.4,8.6,0.8c0.8,0.2,1.5,0.3,2.2,0.3c2,0,2.7-1,3.3-1.9l0.1-0.2c0.5-0.7,1.6-1.5,3-1.4l0.2,0      c1.5,0.1,2.3,0.8,2.2,4.3c-0.1,2.4-0.8,9.9-0.9,11.4c-0.1,1.3-0.5,2.2-1,2.6c-0.3,0.2-1,0.6-1.9,0.5c-1.4-0.1-2.5-2.1-2.7-2.5      l0,0c-0.7-2-3.7-4.3-9.7-4.3l-0.4,0c-3.1,0.1-4.1,0.6-4.5,1c-0.2,0.3-0.2,0.5-0.2,0.9l0,0.1c0.1,0.9,1.8,2.1,3.2,3      c0.5,0.4,1,0.7,1.5,1c3,2.2,5.4,4,7.3,5.3c2.1,1.5,3.6,2.6,4.9,3.6C580.9,347.7,584.6,350.7,584.7,357.2L584.7,357.2z       M398.8,349.3c0.1-1.4,0.3-2.7,0.6-4l0-0.2c0.4-1.6,1.1-3,2-4.5c5.8-10,16.9-10.6,17.1-10.6c1-0.1,1.9-0.2,2.7-0.2      c5.5,0,6.9,2.4,7.3,3.4c0,0.3,0,0.6,0,0.8c0,1.1-1.1,11.2-1.9,15.5c-0.3,1.7-1.1,5-2.5,7.7c-0.5,1-1.1,1.8-1.7,2.4      c-3.6,3.6-6.1,5-10.5,5.5c-0.5,0.1-1.1,0.1-1.7,0.1c-2.2,0-4.3-0.8-6.3-2.4C401.2,360.9,398.5,356.2,398.8,349.3L398.8,349.3z       M450.8,360.3c-0.4-0.1-0.7-0.1-1.1-0.1h-0.1c-1.2,0-2.1,0.5-2.8,1c-0.7,0.4-1.3,0.8-2.1,0.8c-0.1,0-0.3-0.1-0.4-0.2      c-0.9-1.1-0.2-5.3,0-6.9l0.1-0.4c0.4-2.4,0.8-5.1,1.3-8.8c0.3-1.9,0.6-3.7,0.9-5.4c0.7-4.5,2.4-13.5,3.4-18.2      c2.8-12.8,6-21.3,7.5-25.4c0.7-1.9,1-2.6,1-3c0-0.6-0.1-2.6-1.7-3.5c-0.3-0.2-0.6-0.2-1-0.2c-1.9,0-4.8,1.9-6.3,3      c-12.3,9-17.2,24.7-18.9,30.5c-0.2-0.1-0.4-0.2-0.5-0.3c-0.2-0.1-0.4-0.2-0.6-0.3c-4.9-2.2-11.5-2.6-11.8-2.7      c0,0-0.9-0.1-2.5-0.1h-0.2c-1.2,0-2.5,0.1-3.7,0.1c-6.4,0.4-10.7,1.9-11.9,2.3c-1.3,0.5-3,1.2-4.4,1.8      c-7.4,3.5-12.7,9-15.9,16.3c-0.7,1.8-6.2,17.5,6.2,27.6c0.2,0.2,0.5,0.4,0.7,0.5l0.3,0.2c0.4,0.3,0.8,0.5,1.1,0.8l0.4,0.2      c0.2,0.1,0.3,0.2,0.5,0.3c1.5,0.9,3,1.7,4.7,2.4l0.1,0h0c1.3,0.5,3.4,1.1,5.7,1.7c1.6,0.3,5.1,0.6,6.5,0.6h0.1      c0.1,0,0.2,0,0.3,0c8.1-0.3,13.3-2.2,16.4-3.9v0l0.8-0.5c1.9-1.2,3-2.3,3.7-3.1c0.1,0.3,0.3,0.5,0.3,0.7l0,0      c1.1,1.8,4.7,5.3,10.9,5.5c0.9,0,1.9,0,2.9-0.1c3.6-0.5,9.9-2.2,11.9-8.6c0.3-0.8,0.6-2.4,0-3.6      C452.1,360.9,451.6,360.5,450.8,360.3L450.8,360.3z M217,307.5l-10.9,62.7h0c-0.1,0.4-0.4,2.4-0.4,2.4c-0.3,1.6-2,2.7-3.4,2.7      l-0.1,0c-3.4,0-7.3-5.1-7.5-5.3l-0.4-0.6c-4.3-5.5-27.9-42-32.4-49l-6.6,38.5c0,0.1-1.3,5.8,2,7.2c5,2.2,5,4,4.5,5.5      c-0.2,0.7-0.7,1.7-2.5,2c-0.1,0-0.3,0.1-0.5,0.1c0,0-0.1,0-0.1,0l-0.1,0c-0.4,0-0.9-0.1-1.4-0.1c-0.4-0.1-0.9-0.1-1.4-0.1      l-0.4,0c-1.2-0.1-4.9-0.4-10.3-0.4c-3.7,0-7.4,0.3-10,0.5c-1.2,0.1-2.1,0.2-2.7,0.2l-0.1,0c0,0-0.2,0-0.6,0      c-0.7,0-1.9-0.1-2.7-1c-0.6-0.7-0.9-1.7-0.8-3c0.2-1.8,2.5-2.4,4.7-2.9l0.2,0c4.6-1.1,6.2-6.5,6.6-8.8c0-0.1,0-0.1,0-0.1      c0.9-5.2,3-18,4.8-29.3c1.7-10.5,3.2-19.6,3.5-21.7c0.6-3.5-0.4-6.1-3.3-7.9l-0.1,0c-1.3-0.6-1.9-0.9-3.2-1.7      c-0.8-0.5-1.7-1.9-1.7-3c0.1-1.1,0.9-2.1,1.9-2.4v0l0.2,0c0,0,0.1,0,0.1,0l0.1,0c0,0,0.9-0.2,2.4-0.3l0,0l0,0h0l0,0l0.1,0      c1.9-0.2,3.9-0.3,5.9-0.3c0.6,0,1.3,0,1.9,0c0.6,0,1.1,0,1.5,0l0.2,0c0.6,0,1.6,0,2.8,0.2c0.6,0.1,0.8,0.1,0.8,0.1l0,0      c8.8,1.4,16.8,8.9,26,24.1c3.3,5.6,7.5,12.3,10.8,17.6c1.2,1.9,2.2,3.6,3.1,5l5.3-31.4c0-0.1,0.9-6.6-3.6-8.4      c-2.6-1-4-2.8-3.8-4.5c0.2-2,1.8-3,4-2.7l0.1,0c0.3,0,0.5,0.1,0.8,0.1c0.4,0.1,0.9,0.1,1.4,0.1l0.4,0c1.2,0.1,4.9,0.4,10.3,0.4      c3.7,0,7.4-0.3,10-0.5c1.4-0.1,2.4-0.2,3-0.2c0.2,0,0.4,0,0.5,0h0c1,0,1.9,0.6,2.2,1.5l0,0l0.1,0.3c0.5,2.6-1.4,4.5-5.5,5.5      c-5.2,1.3-6,8.3-6,8.4L217,307.5L217,307.5z M371.5,344.8c0,0.1,0,0.3,0,0.3c0,1.6-0.6,8.8-4.5,14.5      c-4.4,6.4-10.2,10.4-14.2,12.5c-0.4,0.2-0.8,0.4-1.3,0.7c-2.6,1.4-5.2,2.8-8.4,3.4c-0.2,0-0.4,0-0.6,0c-0.2,0-0.8,0-1.2-0.2      l-0.1,0c-0.6-0.2-1.4-0.6-1.5-1.9c0-0.3,0.1-0.7,0.8-1.9c1.9-2.6,8.2-11.8,9.8-25.2c0.9-7.4,0.1-12.6-2.4-15.4      c-1.6-1.8-4-2.6-7.2-2.6c-0.4,0-0.9,0-1.3,0c-8.6,0.5-12.6,8.6-13.5,12.9c-0.9,4.9-2.1,11.9-2.9,17c-0.2,1.6-0.3,5.6,2.5,6.5      c2.7,0.9,3.9,2.6,3.6,4.6c-0.3,1.5-1.4,2.4-2.9,2.5c-2.2,0.1-4.3,0-6.4-0.1c-1.2-0.1-2.4-0.1-3.6-0.1c-2.2,0-4.5-0.1-6.7-0.1      c-1.1,0-2,0-2.9,0c-0.3,0-0.6,0-0.9,0c-0.5,0-0.9,0-1.3,0c-0.4,0-0.8,0-1.3,0c-0.2,0-0.6,0-1,0c-1,0-2.4,0.1-3.7,0      c-1.5,0-2.2-0.2-2.6-0.6c-0.8-0.6-0.8-1.7-0.8-2.1c0-1.1,0.4-2.1,1.1-2.8c0.8-0.8,1.7-1.1,2.6-1.3c1.7-0.4,3.4-0.9,4.5-5.3      c0.7-3.9,1.5-9.4,2.4-14.8c0.8-5.1,1.6-10,2-12.7c0-0.1,0-0.3,0-0.4c0-0.2,0.1-0.5,0-0.5c-0.1-0.1-0.4-0.2-1-0.1      c-0.4,0-5.3,0.3-6.3-2.5c-1.2-3.4,1.2-4.2,2.3-4.7l0.3-0.1c1.2-0.5,13.7-4,16.2-4.2c0.3,0,0.6-0.1,0.9-0.1      c0.5-0.1,1-0.1,1.4-0.1c0.7,0,1.3,0.2,1.7,0.5c1.9,1.5,1.8,3.9,1.7,5.7c3.2-3,8.4-6.4,15.6-6.9v0c0.5-0.1,1.5-0.2,3.5-0.2      c0.2,0,0.4,0,0.5,0c2.4,0.1,4.7,0.4,5.3,0.5c7.2,1,12.3,3.7,16.6,8.9C368.6,331.8,371.6,337,371.5,344.8L371.5,344.8z       M267.7,334.1c0,1-1.1,11-1.9,15.2c-0.4,2.1-1.6,7.4-4.3,10.2c-3.5,3.6-6,4.9-10.4,5.5c-0.5,0.1-1,0.1-1.7,0.1      c-2.2,0-4.2-0.8-6.3-2.4c-2.6-2.1-5.3-6.7-5-13.6c0.1-1.4,0.3-2.7,0.6-4l0-0.2c0.4-1.5,1.1-3,2-4.4c5.8-9.9,16.7-10.5,16.9-10.5      c0.9-0.1,1.8-0.2,2.7-0.2C267.5,329.9,267.7,333.9,267.7,334.1L267.7,334.1z M289.5,360c-0.4-0.1-0.7-0.1-1.1-0.1      c-1.2,0-2,0.5-2.8,1c-0.7,0.4-1.3,0.8-2,0.8l-0.1,0c-0.2,0-0.3-0.1-0.4-0.2c-0.9-1.1-0.2-5.3,0-6.9l0.1-0.4      c0.6-4.1,1.3-8.8,1.9-12.9l0,0l0.3-2.2c0.3-2.4,1-6.9,1-8c0.1-3.5-0.8-4.2-1.7-5.1l-0.3-0.2c-1.5-1.4-3.5-3.2-7.1-5.3      c-0.9-0.5-2.3-1.3-3.5-1.2c-1,0.1-2,1.1-2.5,2c-0.2,0.3-0.5,1.1-0.9,2l-0.1,0.2c-0.1,0.1-0.2,0.2-0.3,0.2      c-0.2,0.2-0.7-0.1-1.2-0.4c-0.2-0.1-0.4-0.2-0.6-0.3c-4.9-2.2-11.4-2.6-11.6-2.6c0,0-0.9-0.1-2.4-0.1c-1.2,0-2.5,0-3.7,0.1      c-6.3,0.4-10.6,1.9-11.8,2.3c-1.3,0.5-3,1.1-4.3,1.8c-7.3,3.5-12.5,8.9-15.7,16.1c-0.7,1.7-6.1,17.3,6.1,27.4      c0.2,0.2,0.4,0.4,0.7,0.5l0.3,0.2c0.4,0.3,0.7,0.5,1.1,0.8l0.4,0.2c0.2,0.1,0.3,0.2,0.5,0.3c1.5,0.9,3,1.7,4.6,2.3l0.9,0.3      l0-0.1c2,0.8,3.6,1.1,4.5,1.4l0.3,0.1c1.7,0.5,5.2,0.6,6.4,0.6c0.1,0,0.2,0,0.3,0c7.9-0.3,13.1-2.2,16.2-3.9v0l0.8-0.5      c1.9-1.2,3-2.3,3.7-3.1l0.1,0.2l0-0.1c0.1,0.3,0.2,0.4,0.3,0.6l0,0c1.1,1.9,4.8,5.4,11.2,5.4l0,0c0.8,0,1.6-0.1,2.4-0.2      c3.5-0.5,9.8-2.2,11.7-8.5c0.3-0.8,0.6-2.4-0.1-3.6C290.7,360.6,290.2,360.2,289.5,360L289.5,360z"/>
			</g>
			<path id="Fill-4" d="M129.2,276.1c-1.5,2.2-4,4.5-5.7,6c-0.1-4.7-0.9-8.2-2.1-10.8C125.9,272.9,129.2,276.1,129.2,276.1      M121.7,321.4c0.2-4.6,0.8-15.3,1.3-23.8c1,1.3,2.5,2.5,4.6,2c1.1-0.2,3.5-0.9,3.7-4.4c0.1-2-1.4-4.6-5.5-9     c-0.2-0.3-0.6-0.5-1-0.8c2.4-2.2,6.1-5.9,7.9-9.2l0.5-0.8l-0.7-0.6c-3.8-3.2-9.1-6.2-11.5-7.5c-1.2-0.7-2.2-1.2-3-1.6     c0.2-0.1,0.3-0.2,0.5-0.4c2.3-2.3,11.7-13,5.8-27.4c-5.9-14.2-20.7-14.2-28.6-12.3c-2.9,0.8-5.5,2.2-6.8,2.9     c-5.1,3.4-9.1,8.5-10.3,14.7c-1.3,6.7,0.7,14.1,5.7,18.7c1,0.9,1.4,1.2,1.6,1.1c-0.1,0.1,0.2-1.2,2.4-3.2     c0.7-0.6,4.5-3.9,9.7-2.1c3,1,4.3,2.5,5.3,4.7c0.5,1,0.7,2.3,0.7,3.5c-0.1,0-0.2,0.1-0.3,0.1c-3.9,2.4-8.1,7.9-7.1,20.9     c1.1,15.1,2.3,27.5,2.9,34.5c-2.3,0.1-4.5,0.3-6.5,0.6c3.2-13.7,2.5-29.5-12.6-38.9c-14.4-9-34.6-6.1-47.3,4.7     c-12.8,10.8-15.7,29.5-8.8,44.4c0.6,1.3,1.3,2.6,2,3.9c2.2,3.7,5,7.1,8.5,9.7c3.5,2.7,7.6,4.5,11.7,5.8c2.6,0.8,5.3,1.4,7.9,2     c0.3,0.1,0.6-0.3,0.4-0.6c-0.2-0.3-0.3-0.6-0.4-0.7c-0.8-1.3-1.3-2.8-1.6-4.4c-1-5.5,0.8-11.8,5.3-15.3c4.3-3.2,10.4-3.3,14.7,0     c0.7,0.6,1.4,1.2,2,1.9c-2.6,5.5-2.5,11.5-1.7,15.4c0.5,2.7,1,3.6,1.4,4.7c2.3,7.2,8.6,14.7,10.8,17.5c3.3,4.2,12.7,14,16.2,17.6     v14.6c-1.2,0.7-9.3,5.8-12.8,13.3c-0.4,0.8,0.3,1.6,1.2,1.5c6.1-0.9,13.8-1.4,21.2-1.5c7.4,0,14.4,0.5,20.5,1.5     c0.9,0.1,1.6-0.7,1.2-1.5c-3.5-7.5-11.6-12.6-12.8-13.3v-14.5c3.2-3.5,12-13.4,15.1-17.6c2.1-2.9,10.5-13.7,12.1-22.2     C148.9,341.1,147.4,322.4,121.7,321.4"/>
			<path id="Fill-6" class="st3" d="M107.8,263.6l0,0.2c0,0.2,0,0.4,0,0.5l0,0.1c0,0,0,0,0,0c2.2-0.4,4.4-0.4,6.2-0.1l0,0     c3.8-3.1,6.6-7.8,7.6-13.3c1.1-6.1-0.3-11.9-3.8-15.9c-3.8-4.2-8.7-6.3-14.6-6.3c-0.3,0-0.6,0-0.8,0c-5.7,0.1-9.2,1.4-13.5,4.9     c-1.7,1.4-5.6,5.2-6.1,11.2c-0.3,3.3,0.1,5.7,0.5,7.2c0.1,0.3,0.1,0.5,0.2,0.7c0.3,1.3,0.6,2.2,1.9,4.2c0,0,0,0,0.1-0.1     c1.7-1.6,3.6-2.7,5.7-3.3c1.5-0.4,3.1-0.6,4.8-0.6c0.7,0,4.9,0.6,7.8,2.9C107.6,259,107.7,262,107.8,263.6 M120.3,337.6     c-6.8-0.6-9.6,5.4-9.7,5.6c-0.1-0.2-2.9-6.3-9.7-5.6c-6.9,0.6-11.6,9.1-2.2,22.2c9.1,12.7,11.7,13.3,11.9,13.3h0h0l0,0     c0.2,0,2.8-0.6,11.9-13.3C131.9,346.6,127.2,338.2,120.3,337.6 M82.6,290.1c-4.3-4-10-6.5-15.6-7.5c-15.3-2.6-32,4.1-38.9,18.3     c-5.8,12.1-3.3,28.7,6.1,38.3c4.3,4.4,8.8,6.9,14.4,8.1c0.1,0-0.8-3.8,0.2-7.8c1.1-4.6,3.3-10.1,9.8-12.6     c9.9-3.9,15.6,0.9,19,3.3c2.2-2.4,3.7-3.4,6-4.6c1.8-0.9,2.9-1.3,4.6-1.7c2-4.4,2.8-12.8,2-17.4     C89.1,300.6,88.3,295.4,82.6,290.1 M128,293.8c0.5,0.9,0.2,2-0.7,2.4c-0.7,0.4-1.7,0.1-2.2-0.6l0,0c0,0,0,0-0.1-0.1     c0-0.1-0.1-0.1-0.1-0.2c0-0.1-0.1-0.1-0.1-0.2c-0.2-0.3-0.4-0.9-0.6-1.7c-0.3-1.1-0.8-3.4-1-4.6c-0.1-0.4-0.1-0.5-0.1-0.6     c0.1,0,0.1,0.1,0.4,0.4c0.9,0.9,2.6,2.7,3.2,3.4c0.5,0.7,0.8,1.1,1,1.4C127.9,293.6,128,293.7,128,293.8"/>
			<path id="Fill-8" class="st1" d="M121.3,271.2c1.2,2.6,2.1,6.1,2.1,10.8c1.7-1.5,4.2-3.8,5.7-6     C129.2,276.1,125.9,272.9,121.3,271.2 M113.6,276.6c0-1.4-1.2-2.6-2.6-2.6c-1.4,0-2.6,1.2-2.6,2.6s1.2,2.6,2.6,2.6     C112.4,279.3,113.6,278.1,113.6,276.6 M116.8,276.6c0,3.2-2.6,5.8-5.8,5.8c-3.2,0-5.8-2.6-5.8-5.8c0-3.2,2.6-5.8,5.8-5.8     C114.2,270.8,116.8,273.4,116.8,276.6 M109.6,289c0.5-1.1,1.8-1.6,2.8-1.1c0.9,0.4,1.3,1.5,1,2.5l0,0c0,0,0,0-0.1,0.1     c0,0.1-0.1,0.2-0.1,0.2c0,0.1-0.1,0.2-0.1,0.2c-0.2,0.4-0.6,1-1.1,1.7c-0.8,1.1-2.7,3.1-3.6,4.2c-0.3,0.4-0.4,0.5-0.5,0.4     c-0.1,0,0-0.1,0-0.6c0.2-1.4,0.6-4.3,0.9-5.5c0.2-1,0.5-1.6,0.6-2C109.5,289.2,109.5,289.1,109.6,289"/>
			<path id="Fill-10" class="st1" d="M70.8,288.9c-1.6,0-2.9,1.3-2.9,2.9c0,1.6,1.3,2.9,2.9,2.9c1.6,0,2.9-1.3,2.9-2.9     C73.7,290.2,72.4,288.9,70.8,288.9"/>
			<path id="Fill-12" class="st1" d="M78.9,301.9c1.6,0,2.9-1.3,2.9-2.9c0-1.6-1.3-2.9-2.9-2.9c-1.6,0-2.9,1.3-2.9,2.9     C76,300.6,77.3,301.9,78.9,301.9"/>
			<path id="Fill-14" class="st1" d="M81.8,306.3c-1.6,0-2.9,1.3-2.9,2.9c0,1.6,1.3,2.9,2.9,2.9s2.9-1.3,2.9-2.9     C84.6,307.6,83.3,306.3,81.8,306.3"/>
			<path id="Fill-16" class="st1" d="M40.8,332.9c-1.6,0-2.9,1.3-2.9,2.9s1.3,2.9,2.9,2.9c1.6,0,2.9-1.3,2.9-2.9     S42.4,332.9,40.8,332.9"/>
			<path id="Fill-18" class="st1" d="M34.7,324.5c-1.6,0-2.9,1.3-2.9,2.9c0,1.6,1.3,2.9,2.9,2.9c1.6,0,2.9-1.3,2.9-2.9     C37.5,325.8,36.2,324.5,34.7,324.5"/>
			<path id="Fill-20" class="st1" d="M35.1,317.3c0-1.6-1.3-2.9-2.9-2.9c-1.6,0-2.9,1.3-2.9,2.9c0,1.6,1.3,2.9,2.9,2.9     C33.8,320.1,35.1,318.8,35.1,317.3"/>
			<path id="Fill-22" class="st1" d="M33.6,309.7c1.6,0,2.9-1.3,2.9-2.9s-1.3-2.9-2.9-2.9c-1.6,0-2.9,1.3-2.9,2.9     S32,309.7,33.6,309.7"/>
			<path id="Fill-24" class="st1" d="M39.2,300.6c1.6,0,2.9-1.3,2.9-2.9c0-1.6-1.3-2.9-2.9-2.9c-1.6,0-2.9,1.3-2.9,2.9     C36.3,299.3,37.6,300.6,39.2,300.6"/>
			<path id="Fill-26" class="st1" d="M48.6,288.8c-1.6,0-2.9,1.3-2.9,2.9c0,1.6,1.3,2.9,2.9,2.9c1.6,0,2.9-1.3,2.9-2.9     C51.4,290.1,50.1,288.8,48.6,288.8"/>
			<path id="Fill-28" class="st1" d="M59.8,286.6c-1.6,0-2.9,1.3-2.9,2.9c0,1.6,1.3,2.9,2.9,2.9c1.6,0,2.9-1.3,2.9-2.9     C62.6,287.9,61.3,286.6,59.8,286.6"/>
			<path id="Fill-30" class="st1" d="M79.7,316.5c-1.6,0-2.9,1.3-2.9,2.9s1.3,2.9,2.9,2.9c1.6,0,2.9-1.3,2.9-2.9     S81.3,316.5,79.7,316.5"/>
		</g>
	</g>
</g>
</svg>